<svg width="83" height="82" viewBox="0 0 83 82" fill="none" xmlns="http://www.w3.org/2000/svg">
<path d="M45.605 0.687988H25.292V4.75101H45.605V0.687988Z" fill="#D002AC"/>
<path d="M45.605 65.688H25.292V69.751H45.605V65.688Z" fill="#FFC23B"/>
<path d="M45.605 57.563H25.292V61.626H45.605V57.563Z" fill="#FFC23B"/>
<path d="M69.98 25.063H65.917V45.376H69.98V25.063Z" fill="#F99030"/>
<path d="M4.98001 25.063H0.916992V45.376H4.98001V25.063Z" fill="#FF81EF"/>
<path d="M25.292 4.75H17.167V8.81299H25.292V4.75Z" fill="#FF81EF"/>
<path d="M25.292 61.625H17.167V65.688H25.292V61.625Z" fill="#F99030"/>
<path d="M45.605 61.625H25.292V65.688H45.605V61.625Z" fill="#E68A2E"/>
<path d="M53.729 61.625H45.604V65.688H53.729V61.625Z" fill="#F99030"/>
<path d="M53.729 53.5H45.604V57.563H53.729V53.5Z" fill="#FFC23B"/>
<path d="M53.729 12.875H45.604V16.938H53.729V12.875Z" fill="#E68A2E"/>
<path d="M25.292 12.875H17.167V16.938H25.292V12.875Z" fill="#E68A2E"/>
<path d="M25.292 53.5H17.167V57.563H25.292V53.5Z" fill="#FFC23B"/>
<path d="M45.605 8.81299H25.292V12.876H45.605V8.81299Z" fill="#E68A2E"/>
<path d="M45.605 4.75H25.292V8.81299H45.605V4.75Z" fill="#F99030"/>
<path d="M53.729 4.75H45.604V8.81299H53.729V4.75Z" fill="#F99030"/>
<path d="M57.792 0.687988H45.604V4.75101H57.792V0.687988Z" fill="#FF81EF"/>
<path d="M57.792 77.875H25.292V81.938H57.792V77.875Z" fill="#D002AC"/>
<path d="M4.98001 45.375H0.916992V57.563H4.98001V45.375Z" fill="#D002AC"/>
<path d="M65.917 4.75H57.792V8.81299H65.917V4.75Z" fill="#D002AC"/>
<path d="M69.98 8.81299H65.917V12.876H69.98V8.81299Z" fill="#D002AC"/>
<path d="M74.042 12.875H69.979V16.938H74.042V12.875Z" fill="#D002AC"/>
<path d="M74.042 65.688H69.979V69.751H74.042V65.688Z" fill="#D002AC"/>
<path d="M13.105 65.688H9.04199V69.751H13.105V65.688Z" fill="#D002AC"/>
<path d="M17.167 69.75H13.104V73.813H17.167V69.75Z" fill="#D002AC"/>
<path d="M65.917 73.813H57.792V77.876H65.917V73.813Z" fill="#D002AC"/>
<path d="M69.98 69.75H65.917V73.813H69.98V69.75Z" fill="#D002AC"/>
<path d="M78.105 16.938H74.042V25.063H78.105V16.938Z" fill="#D002AC"/>
<path d="M78.105 57.563H74.042V65.688H78.105V57.563Z" fill="#D002AC"/>
<path d="M9.04199 57.563H4.979V65.688H9.04199V57.563Z" fill="#D002AC"/>
<path d="M25.292 73.813H17.167V77.876H25.292V73.813Z" fill="#D002AC"/>
<path d="M82.167 25.063H78.104V57.563H82.167V25.063Z" fill="#D002AC"/>
<path d="M25.292 8.81299H17.167V12.876H25.292V8.81299Z" fill="#F99030"/>
<path d="M17.167 8.81299H13.104V12.876H17.167V8.81299Z" fill="#D002AC"/>
<path d="M53.729 8.81299H45.604V12.876H53.729V8.81299Z" fill="#F99030"/>
<path d="M57.792 4.75H53.729V8.81299H57.792V4.75Z" fill="#FFC23B"/>
<path d="M57.792 8.81299H53.729V12.876H57.792V8.81299Z" fill="#F99030"/>
<path d="M61.855 12.875H57.792V16.938H61.855V12.875Z" fill="#F99030"/>
<path d="M13.105 12.875H9.04199V16.938H13.105V12.875Z" fill="#FF81EF"/>
<path d="M13.105 53.5H9.04199V57.563H13.105V53.5Z" fill="#F99030"/>
<path d="M61.855 53.5H57.792V57.563H61.855V53.5Z" fill="#FFC23B"/>
<path d="M53.729 57.563H45.604V61.626H53.729V57.563Z" fill="#E68A2E"/>
<path d="M57.792 57.563H53.729V61.626H57.792V57.563Z" fill="#FFC23B"/>
<path d="M57.792 53.5H53.729V57.563H57.792V53.5Z" fill="#F99030"/>
<path d="M57.792 45.375H53.729V53.5H57.792V45.375Z" fill="#E68A2E"/>
<path d="M57.792 12.875H53.729V16.938H57.792V12.875Z" fill="#F99030"/>
<path d="M57.792 16.938H53.729V25.063H57.792V16.938Z" fill="#E68A2E"/>
<path d="M17.167 12.875H13.104V16.938H17.167V12.875Z" fill="#F99030"/>
<path d="M17.167 16.938H13.104V25.063H17.167V16.938Z" fill="#E68A2E"/>
<path d="M17.167 45.375H13.104V53.5H17.167V45.375Z" fill="#E68A2E"/>
<path d="M61.855 25.063H57.792V45.376H61.855V25.063Z" fill="#E68A2E"/>
<path d="M13.105 25.063H9.04199V45.376H13.105V25.063Z" fill="#E68A2E"/>
<path d="M17.167 53.5H13.104V57.563H17.167V53.5Z" fill="#E68A2E"/>
<path d="M25.292 57.563H17.167V61.626H25.292V57.563Z" fill="#E68A2E"/>
<path d="M17.167 57.563H13.104V61.626H17.167V57.563Z" fill="#FFC23B"/>
<path d="M13.105 16.938H9.04199V25.063H13.105V16.938Z" fill="#F99030"/>
<path d="M9.04199 16.938H4.979V25.063H9.04199V16.938Z" fill="#D002AC"/>
<path d="M9.04199 25.063H4.979V45.376H9.04199V25.063Z" fill="#F99030"/>
<path d="M13.105 45.375H9.04199V53.5H13.105V45.375Z" fill="#FFC23B"/>
<path d="M9.04199 53.5H4.979V57.563H9.04199V53.5Z" fill="#F99030"/>
<path d="M9.04199 45.375H4.979V53.5H9.04199V45.375Z" fill="#E68A2E"/>
<path d="M61.855 45.375H57.792V53.5H61.855V45.375Z" fill="#F99030"/>
<path d="M65.916 45.375H61.854V53.5H65.916V45.375Z" fill="#FFC23B"/>
<path d="M78.104 25.063V57.563H74.042V65.688H69.979V69.75H65.917V73.813H57.792V77.875H25.292V73.813H17.167V69.75H13.104V65.688H9.04199V57.563H13.104V61.625H17.167V65.688H25.292V69.75H45.604V65.688H53.729V61.625H57.792V57.563H61.854V53.5H65.917V45.375H69.979V25.063H65.917V16.938H61.854V12.875H57.792V8.81299H65.917V12.875H69.979V16.938H74.042V25.063H78.104Z" fill="#F99030"/>
<path d="M65.916 25.063H61.854V45.376H65.916V25.063Z" fill="#F99030"/>
<path d="M61.855 16.938H57.792V25.063H61.855V16.938Z" fill="#F99030"/>
<path d="M65.916 16.938H61.854V25.063H65.916V16.938Z" fill="#FFC23B"/>
<path d="M37.48 12.875H33.417V57.563H37.48V12.875Z" fill="#F99030"/>
<path d="M57.792 33.188H13.104V37.251H57.792V33.188Z" fill="#F99030"/>
<path d="M33.417 29.125H29.354V33.188H33.417V29.125Z" fill="#F99030"/>
<path d="M41.542 29.125H37.479V33.188H41.542V29.125Z" fill="#F99030"/>
<path d="M41.542 37.25H37.479V41.313H41.542V37.25Z" fill="#F99030"/>
<path d="M33.417 37.25H29.354V41.313H33.417V37.25Z" fill="#F99030"/>
<path d="M29.355 41.313H25.292V45.376H29.355V41.313Z" fill="#F99030"/>
<path d="M25.292 45.375H21.229V49.438H25.292V45.375Z" fill="#F99030"/>
<path d="M33.417 41.313V57.563H25.292V53.5H21.229V49.438H25.292V45.375H29.354V41.313H33.417Z" fill="#FFC23B"/>
<path d="M29.354 37.25V41.313H25.292V45.375H21.229V49.438H17.167V45.375H13.104V37.25H29.354Z" fill="#FFC23B"/>
<path d="M21.23 49.438H17.167V53.501H21.23V49.438Z" fill="#F99030"/>
<path d="M45.605 41.313H41.542V45.376H45.605V41.313Z" fill="#F99030"/>
<path d="M49.667 45.375H45.604V49.438H49.667V45.375Z" fill="#F99030"/>
<path d="M57.792 37.25V45.375H53.729V49.438H49.667V45.375H45.604V41.313H41.542V37.25H57.792Z" fill="#FFC23B"/>
<path d="M49.667 49.438V53.5H45.604V57.563H37.479V41.313H41.542V45.375H45.604V49.438H49.667Z" fill="#FFC23B"/>
<path d="M53.73 49.438H49.667V53.501H53.73V49.438Z" fill="#F99030"/>
<path d="M45.605 25.063H41.542V29.126H45.605V25.063Z" fill="#F99030"/>
<path d="M49.667 21H45.604V25.063H49.667V21Z" fill="#F99030"/>
<path d="M49.667 16.938V21H45.604V25.063H41.542V29.125H37.479V12.875H45.604V16.938H49.667Z" fill="#FFC23B"/>
<path d="M57.792 25.063V33.188H41.542V29.125H45.604V25.063H49.667V21H53.729V25.063H57.792Z" fill="#FFC23B"/>
<path d="M53.73 16.938H49.667V21.001H53.73V16.938Z" fill="#F99030"/>
<path d="M29.355 25.063H25.292V29.126H29.355V25.063Z" fill="#F99030"/>
<path d="M25.292 21H21.229V25.063H25.292V21Z" fill="#F99030"/>
<path d="M29.354 29.125V33.188H13.104V25.063H17.167V21H21.229V25.063H25.292V29.125H29.354Z" fill="#FFC23B"/>
<path d="M33.417 12.875V29.125H29.354V25.063H25.292V21H21.229V16.938H25.292V12.875H33.417Z" fill="#FFC23B"/>
<path d="M21.23 16.938H17.167V21.001H21.23V16.938Z" fill="#F99030"/>
<path d="M57.792 73.813H49.667V77.876H57.792V73.813Z" fill="#E68A2E"/>
<path d="M37.479 73.813H29.354V77.876H37.479V73.813Z" fill="#F99030"/>
<path d="M61.854 65.688H53.729V69.751H61.854V65.688Z" fill="#E68A2E"/>
<path d="M65.916 69.75H61.854V73.813H65.916V69.75Z" fill="#E68A2E"/>
<path d="M57.792 69.75H53.729V73.813H57.792V69.75Z" fill="#E68A2E"/>
<path d="M49.667 69.75H45.604V73.813H49.667V69.75Z" fill="#F99030"/>
<path d="M45.605 73.813H41.542V77.876H45.605V73.813Z" fill="#E68A2E"/>
<path d="M41.542 69.75H37.479V73.813H41.542V69.75Z" fill="#F99030"/>
<path d="M53.73 65.688H49.667V69.751H53.73V65.688Z" fill="#E68A2E"/>
<path d="M57.792 61.625H53.729V65.688H57.792V61.625Z" fill="#F99030"/>
<path d="M65.916 61.625H61.854V65.688H65.916V61.625Z" fill="#E68A2E"/>
<path d="M61.855 57.563H57.792V61.626H61.855V57.563Z" fill="#F99030"/>
<path d="M69.98 57.563H65.917V61.626H69.98V57.563Z" fill="#E68A2E"/>
<path d="M65.916 53.5H61.854V57.563H65.916V53.5Z" fill="#F99030"/>
<path d="M74.042 53.5H69.979V57.563H74.042V53.5Z" fill="#E68A2E"/>
<path d="M69.98 65.688H65.917V69.751H69.98V65.688Z" fill="#E68A2E"/>
<path d="M74.042 61.625H69.979V65.688H74.042V61.625Z" fill="#E68A2E"/>
<path d="M78.105 45.375H74.042V57.563H78.105V45.375Z" fill="#E68A2E"/>
</svg>
