<svg width="217" height="33" viewBox="0 0 217 33" fill="none" xmlns="http://www.w3.org/2000/svg">
<path d="M23.7801 11.8794V32.9732H16.7489V23.0123C15.3895 23.4029 13.827 23.5982 12.0614 23.5982C4.24886 23.5982 0.342606 19.6919 0.342606 11.8794C0.342606 4.06694 4.24886 0.160692 12.0614 0.160692C19.8739 0.160692 23.7801 4.06694 23.7801 11.8794ZM16.7489 11.8794C16.7489 7.19194 15.1864 4.84819 12.0614 4.84819C8.93636 4.84819 7.37386 7.19194 7.37386 11.8794C7.37386 16.5669 8.93636 18.9107 12.0614 18.9107C15.1864 18.9107 16.7489 16.5669 16.7489 11.8794ZM26.1239 21.2544V0.160692H33.1551V21.2544C33.1551 25.9419 34.7176 28.2857 37.8426 28.2857C40.9676 28.2857 42.5301 25.9419 42.5301 21.2544V0.160692H49.5614V21.2544C49.5614 29.0669 45.6551 32.9732 37.8426 32.9732C30.0301 32.9732 26.1239 29.0669 26.1239 21.2544ZM51.9051 9.53569V0.160692H58.9364V9.53569C58.9364 12.6607 60.4989 14.2232 63.6239 14.2232C66.7489 14.2232 68.3114 12.6607 68.3114 9.53569V0.160692H75.3426V23.5982C75.3426 29.8482 71.4364 32.9732 63.6239 32.9732C55.8114 32.9732 51.9051 29.8482 51.9051 23.5982H58.9364C58.9364 26.7232 60.4989 28.2857 63.6239 28.2857C66.7489 28.2857 68.3114 26.7232 68.3114 23.5982V18.4419C66.952 18.7544 65.3895 18.9107 63.6239 18.9107C55.8114 18.9107 51.9051 15.7857 51.9051 9.53569ZM84.7176 11.8794V32.9732H77.6864V11.8794C77.6864 4.06694 81.5926 0.160692 89.4051 0.160692C97.2176 0.160692 101.124 4.06694 101.124 11.8794V32.9732H94.0926V11.8794C94.0926 7.19194 92.5301 4.84819 89.4051 4.84819C86.2801 4.84819 84.7176 7.19194 84.7176 11.8794ZM110.499 16.5669V32.9732H103.468V0.160692H110.499V5.43413C111.858 5.0435 113.421 4.84819 115.186 4.84819C122.999 4.84819 126.905 8.75444 126.905 16.5669V32.9732H119.874V16.5669C119.874 11.8794 118.311 9.53569 115.186 9.53569C112.061 9.53569 110.499 11.8794 110.499 16.5669ZM152.874 4.84819C149.749 4.84819 148.186 6.41069 148.186 9.53569H141.155C141.155 3.28569 145.061 0.160692 152.874 0.160692C160.686 0.160692 164.593 3.28569 164.593 9.53569V23.5982C164.593 29.8482 160.686 32.9732 152.874 32.9732C145.061 32.9732 141.155 29.8482 141.155 23.5982V21.2544C141.155 15.0044 145.061 11.8794 152.874 11.8794C154.639 11.8794 156.202 12.0357 157.561 12.3482V9.53569C157.561 6.41069 155.999 4.84819 152.874 4.84819ZM157.561 21.2544C157.561 18.1294 155.999 16.5669 152.874 16.5669C149.749 16.5669 148.186 18.1294 148.186 21.2544V23.5982C148.186 26.7232 149.749 28.2857 152.874 28.2857C155.999 28.2857 157.561 26.7232 157.561 23.5982V21.2544ZM173.968 11.8794V32.9732H166.936V11.8794C166.936 4.06694 170.843 0.160692 178.655 0.160692C186.468 0.160692 190.374 4.06694 190.374 11.8794V32.9732H183.343V11.8794C183.343 7.19194 181.78 4.84819 178.655 4.84819C175.53 4.84819 173.968 7.19194 173.968 11.8794ZM199.749 16.5669V32.9732H192.718V0.160692H199.749V5.43413C201.108 5.0435 202.671 4.84819 204.436 4.84819C212.249 4.84819 216.155 8.75444 216.155 16.5669V32.9732H209.124V16.5669C209.124 11.8794 207.561 9.53569 204.436 9.53569C201.311 9.53569 199.749 11.8794 199.749 16.5669Z" fill="#EC7696"/>
</svg>
