<svg width="444" height="889" viewBox="0 0 444 889" fill="none" xmlns="http://www.w3.org/2000/svg">
<g clip-path="url(#clip0_25_13)">
<path d="M126.64 646.376L117.525 643.696C114.553 642.819 112.084 640.806 110.623 638.069C109.162 635.333 108.819 632.078 109.664 628.969C134.249 538.439 91.7612 448.34 11.2545 424.613C-66.709 401.647 -153.318 448.872 -190.477 531.303C-192.817 536.538 -196.946 540.812 -202.065 543.3C-207.185 545.788 -212.934 546.314 -218.202 544.776L-218.507 544.678C-220.089 544.214 -221.545 543.423 -222.785 542.353C-224.024 541.283 -225.022 539.956 -225.717 538.454C-226.412 536.952 -226.79 535.306 -226.827 533.616C-226.865 531.926 -226.561 530.228 -225.935 528.625C-183.813 421.877 -74.5581 359.328 23.438 388.2C121.434 417.072 172.983 526.991 142.531 637.178C142.07 638.832 141.285 640.391 140.224 641.761C139.163 643.13 137.849 644.28 136.361 645.141C134.874 646.002 133.245 646.555 131.573 646.768C129.902 646.98 128.223 646.847 126.64 646.376Z" fill="#EC7696"/>
<path d="M161.872 641.178L151.087 637.996C148.241 637.164 145.872 635.251 144.473 632.656C143.074 630.06 142.751 626.979 143.572 624.053C175.183 512.925 122.305 401.213 22.0852 371.656C-78.1348 342.099 -189.491 405.358 -231.171 513.511C-232.278 516.353 -234.416 518.708 -237.143 520.089C-239.87 521.469 -242.976 521.768 -245.819 520.925L-256.604 517.742C-258.091 517.305 -259.46 516.568 -260.63 515.574C-261.8 514.58 -262.747 513.35 -263.413 511.959C-264.08 510.567 -264.452 509.043 -264.508 507.476C-264.564 505.91 -264.302 504.335 -263.739 502.844C-240.836 442.735 -199.23 392.59 -145.576 360.782C-88.5092 326.934 -24.6421 317.863 34.2572 335.239C93.1565 352.616 140.013 394.342 166.27 452.765C190.932 507.702 194.565 571.179 176.791 632.784C176.347 634.31 175.604 635.744 174.605 637C173.607 638.255 172.373 639.307 170.98 640.091C169.586 640.875 168.061 641.376 166.496 641.562C164.93 641.749 163.358 641.619 161.872 641.178Z" fill="#254883"/>
<path d="M192.878 634.252L186.411 632.349C183.133 631.388 180.408 629.182 178.801 626.189C177.194 623.197 176.83 619.647 177.782 616.278C195.401 554.689 191.701 491.277 167.029 436.381C140.71 377.802 93.7141 335.954 34.649 318.53C-24.4161 301.106 -88.4495 310.206 -145.673 344.146C-199.293 375.948 -240.91 425.991 -263.928 485.987C-265.194 489.259 -267.649 491.972 -270.783 493.566C-273.917 495.159 -277.49 495.509 -280.762 494.544L-287.227 492.636C-288.951 492.127 -290.538 491.269 -291.893 490.113C-293.249 488.957 -294.344 487.528 -295.113 485.912C-295.882 484.295 -296.309 482.525 -296.368 480.707C-296.428 478.89 -296.118 477.063 -295.458 475.336C-269.153 406.423 -221.43 348.93 -159.89 312.436C-94.3988 273.598 -21.0916 263.183 46.5136 283.12C114.119 303.056 167.929 350.965 198.036 418.016C226.323 481.005 230.504 553.808 210.155 624.476C209.647 626.247 208.79 627.913 207.636 629.373C206.482 630.832 205.054 632.056 203.44 632.97C201.826 633.883 200.057 634.468 198.242 634.688C196.427 634.909 194.602 634.76 192.878 634.252Z" fill="#EC7696"/>
</g>
<defs>
<clipPath id="clip0_25_13">
<rect width="565.945" height="378.455" fill="white" transform="translate(-209.187 174.424) rotate(18.7701)"/>
</clipPath>
</defs>
</svg>
